<?xml version="1.0" encoding="utf-8"?>
<!-- Generator: Adobe Illustrator 16.0.0, SVG Export Plug-In . SVG Version: 6.00 Build 0)  -->
<!DOCTYPE svg PUBLIC "-//W3C//DTD SVG 1.1//EN" "http://www.w3.org/Graphics/SVG/1.1/DTD/svg11.dtd">
<svg version="1.1" id="Layer_1" xmlns="http://www.w3.org/2000/svg" xmlns:xlink="http://www.w3.org/1999/xlink" x="0px" y="0px"
	 width="100px" height="100px" viewBox="0 0 100 100" enable-background="new 0 0 100 100" xml:space="preserve">
<g>
	<path fill="#4472B8" d="M74.389,13.275c2.75,0,6.304,1.834,7.896,4.076l12.371,17.404c1.593,2.242,1.312,5.672-0.626,7.624
		L53.522,83.178c-1.938,1.951-5.108,1.951-7.045,0L5.97,42.379c-1.938-1.952-2.22-5.382-0.626-7.624l12.37-17.404
		c1.593-2.242,5.146-4.076,7.896-4.076H74.389z"/>
</g>
<g>
	<path fill="#679BD2" d="M56.195,13.275c2.75,0,4.661,2.224,4.247,4.943l-9.689,63.564c-0.415,2.719-1.092,2.719-1.507,0
		l-9.689-63.564c-0.415-2.719,1.497-4.943,4.247-4.943H56.195z"/>
</g>
<g>
	<path fill="#215EA6" d="M77.531,17.917c1.021-2.553,3.161-2.808,4.754-0.566l12.371,17.404c1.593,2.242,1.312,5.672-0.626,7.624
		L53.522,83.178c-1.938,1.951-2.687,1.459-1.665-1.095L77.531,17.917z"/>
</g>
<g>
	<path fill="#215EA6" d="M22.469,17.917c-1.021-2.553-3.161-2.808-4.754-0.566L5.344,34.755c-1.593,2.242-1.311,5.672,0.626,7.624
		l40.507,40.799c1.938,1.951,2.687,1.459,1.666-1.095L22.469,17.917z"/>
</g>
<g display="none" opacity="0.5">
	<path display="inline" fill="#225378" d="M90.42,35.83c2.75,0,5.479,0.675,6.066,1.5s0.321,2.251-0.59,3.168
		s-3.906,1.668-6.656,1.668l-78.479,0.001c-2.75,0-5.746-0.751-6.657-1.668s-1.177-2.343-0.591-3.167
		c0.585-0.824,3.315-1.498,6.065-1.498L90.42,35.83z"/>
</g>
<g>
	<path fill="#4472B8" d="M74.389,13.275c2.75,0,6.304,1.834,7.896,4.076l12.371,17.404c1.593,2.242,0.646,4.076-2.104,4.076H7.447
		c-2.75,0-3.697-1.834-2.104-4.076l12.37-17.404c1.593-2.242,5.146-4.076,7.896-4.076H74.389z"/>
</g>
<g>
	<path fill="#AED0EE" d="M74.389,13.275c2.75,0,3.302,1.477,1.227,3.281L53.773,35.55c-2.075,1.804-5.471,1.804-7.546,0
		L24.383,16.556c-2.075-1.804-1.523-3.281,1.227-3.281H74.389z"/>
</g>
<g opacity="0.2">
	<path fill="#215EA6" d="M93.148,36.464c2.423,1.302,2.154,2.367-0.596,2.367H7.447c-2.75,0-3.018-1.065-0.596-2.367l38.744-20.821
		c2.422-1.302,6.386-1.302,8.808,0L93.148,36.464z"/>
</g>
<polygon display="none" fill="#FFFFFF" points="72.724,32.927 70.96,27.496 75.58,24.138 80.2,27.496 78.436,32.927 "/>
<polygon display="none" fill="#FFFFFF" points="16.618,20.725 15.392,16.948 18.604,14.614 21.815,16.948 20.589,20.725 "/>
</svg>
